<svg width="1196" height="271" viewBox="0 0 1196 271" fill="none" xmlns="http://www.w3.org/2000/svg">
<g id="BREAK" filter="url(#filter0_i)">
<path d="M39.2188 269.844L8.42188 270.758C6.45312 270.758 5.1875 270.383 4.625 269.633C4.10938 268.883 3.85156 267.406 3.85156 265.203C3.85156 262.953 4.22656 261.594 4.97656 261.125C5.77344 260.609 7.41406 260.352 9.89844 260.352H24.875C25.4375 260.352 25.7188 256.602 25.7188 249.102V156.078C25.7188 139.578 25.4609 123.992 24.9453 109.32C24.4766 94.6016 23.9609 87.2422 23.3984 87.2422L5.82031 87.875C3.94531 87.875 2.60938 87.5 1.8125 86.75C1.0625 86 0.6875 84.4766 0.6875 82.1797C0.6875 79.8359 1.01562 78.3828 1.67188 77.8203C2.375 77.2109 3.75781 76.9062 5.82031 76.9062L39.8516 77.4688L75.2188 76.625C101.281 76.625 119.844 83 130.906 95.75C137 102.734 140.047 112.109 140.047 123.875C140.047 143.562 125.75 158.727 97.1562 169.367C95.6094 169.977 94.8359 170.352 94.8359 170.492C94.8359 170.633 95.8438 170.867 97.8594 171.195C99.875 171.477 102.008 171.852 104.258 172.32C106.508 172.742 109.484 173.539 113.188 174.711C116.891 175.836 120.219 177.148 123.172 178.648C126.125 180.102 129.242 182.117 132.523 184.695C135.805 187.273 138.547 190.156 140.75 193.344C145.859 200.656 148.414 209.656 148.414 220.344C148.414 253.719 121.25 270.406 66.9219 270.406L39.2188 269.844ZM53.3516 175.977C51.8047 175.977 51.0312 176.75 51.0312 178.297C51.0312 233 51.7109 260.352 53.0703 260.352H70.3672C104.352 260.352 121.344 246.336 121.344 218.305C121.344 207.898 119.422 199.461 115.578 192.992C111.781 186.523 106.273 182.07 99.0547 179.633C91.8359 177.195 79.8594 175.977 63.125 175.977H53.3516ZM71.2109 167.891L80.7031 168.172C87.5 168.172 94.4609 165.008 101.586 158.68C109.93 151.273 114.102 141.195 114.102 128.445C114.102 119.352 111.945 111.453 107.633 104.75C98.9141 91.1562 84.3828 84.3594 64.0391 84.3594C57.7578 84.3594 53.8203 84.7578 52.2266 85.5547C51.4297 86.0703 51.0312 108.242 51.0312 152.07V165.922C51.0312 166.812 51.1953 167.375 51.5234 167.609C51.8984 167.797 53 167.891 54.8281 167.891H71.2109ZM253.756 185.75C253.756 120.078 252.795 87.2422 250.873 87.2422L234.139 87.875C232.123 87.875 230.717 87.4531 229.92 86.6094C229.123 85.7656 228.725 84.2422 228.725 82.0391C228.725 79.8359 229.147 78.4297 229.991 77.8203C230.834 77.2109 232.311 76.9062 234.42 76.9062L267.889 77.4688L309.655 75.7812C344.248 75.7812 364.78 87.125 371.248 109.812C372.608 114.594 373.288 119.352 373.288 124.086C373.288 128.773 372.748 132.898 371.67 136.461C370.639 139.977 369.303 143.141 367.663 145.953C366.022 148.719 364.006 151.414 361.616 154.039C359.272 156.617 356.952 158.867 354.655 160.789C352.358 162.664 349.85 164.469 347.131 166.203C343.006 168.875 339.491 170.891 336.584 172.25C333.678 173.609 332.202 174.359 332.155 174.5C332.108 174.641 333.186 175.086 335.389 175.836C337.639 176.539 340.053 177.43 342.631 178.508C345.256 179.586 348.233 181.086 351.561 183.008C354.936 184.93 357.959 187.039 360.631 189.336C363.303 191.586 365.998 194.469 368.717 197.984C371.483 201.453 373.803 205.25 375.678 209.375C379.944 218.703 382.311 229.742 382.78 242.492C383.155 253.32 383.623 259.016 384.186 259.578C384.795 260.094 385.381 260.352 385.944 260.352H399.163C400.803 260.352 401.928 260.844 402.538 261.828C403.194 262.766 403.522 264.688 403.522 267.594C403.522 269.703 401.975 270.758 398.881 270.758L359.436 269.844C357.327 269.844 356.272 268.789 356.272 266.68V250.016C356.272 230.562 354.678 216.594 351.491 208.109C348.069 198.875 343.288 192.219 337.147 188.141C329.459 182.984 319.522 180.266 307.334 179.984L280.827 179.703C279.28 179.703 278.506 180.477 278.506 182.023C278.506 192.336 278.858 207.969 279.561 228.922C280.311 249.875 281.014 260.352 281.67 260.352H298.405C300.045 260.352 301.123 260.68 301.639 261.336C302.155 261.992 302.413 263.328 302.413 265.344C302.413 267.359 302.155 268.766 301.639 269.562C301.123 270.359 300.045 270.758 298.405 270.758L267.256 269.844L239.061 270.758C237.045 270.758 235.709 270.359 235.053 269.562C234.444 268.812 234.139 267.336 234.139 265.133C234.139 262.93 234.514 261.594 235.264 261.125C236.061 260.609 237.702 260.352 240.186 260.352H252.631C253.381 260.352 253.756 248.258 253.756 224.07V185.75ZM279.983 85.5547C278.998 85.5547 278.506 90.4531 278.506 100.25V170.211C278.506 171.195 279.748 171.688 282.233 171.688L319.147 172.25C320.694 172.25 321.748 172.156 322.311 171.969C338.811 164.281 347.061 150.172 347.061 129.641C347.061 113.656 339.608 101.328 324.702 92.6562C315.842 87.5469 306.889 84.9922 297.842 84.9922C288.795 84.9922 282.842 85.1797 279.983 85.5547ZM510.552 269.844L475.395 270.758C473.427 270.758 472.161 270.383 471.598 269.633C471.083 268.883 470.825 267.43 470.825 265.273C470.825 263.07 471.177 261.711 471.88 261.195C472.63 260.633 474.177 260.352 476.52 260.352H494.098C494.895 260.352 495.294 253.438 495.294 239.609V211.977L494.098 127.32C494.098 114.148 493.747 104.094 493.044 97.1562C492.388 90.1719 491.872 86.6797 491.497 86.6797H477.997C476.075 86.6797 474.763 86.3984 474.059 85.8359C473.403 85.2734 473.075 83.6094 473.075 80.8438C473.075 78.0312 474.341 76.625 476.872 76.625L489.528 77.0469C497.966 77.3281 504.2 77.4688 508.231 77.4688L580.794 76.625C590.544 76.625 595.888 76.4844 596.825 76.2031C597.809 75.9219 598.302 75.2891 598.302 74.3047C598.348 74.0703 598.419 73.6719 598.513 73.1094C598.606 72.5 598.7 72.0312 598.794 71.7031C598.888 71.3281 599.075 70.9062 599.356 70.4375C599.825 69.7344 601.091 69.3828 603.153 69.3828C605.263 69.3828 606.716 69.6406 607.513 70.1562C608.356 70.625 608.778 71.7266 608.778 73.4609L607.583 111.43C607.583 112.789 607.208 113.68 606.458 114.102C605.708 114.477 604.255 114.664 602.098 114.664C598.677 114.664 596.966 113.211 596.966 110.305L597.809 88.1562C597.809 87.6406 588.645 87.1719 570.317 86.75C551.989 86.3281 535.513 86.1172 520.888 86.1172C519.763 86.1172 519.2 94.1328 519.2 110.164C519.2 126.195 519.294 139.461 519.481 149.961C519.669 160.461 519.88 165.898 520.114 166.273C520.395 166.602 521.145 166.766 522.364 166.766H570.458C580.442 166.766 585.434 165.523 585.434 163.039V148.062C585.434 146.141 587.192 145.18 590.708 145.18C594.27 145.18 596.052 146.047 596.052 147.781L595.489 170.773L596.052 195.242C596.052 196.977 594.27 197.844 590.708 197.844C587.192 197.844 585.434 196.883 585.434 194.961V180.617C585.434 177.711 580.442 176.258 570.458 176.258C554.192 176.258 541.958 176.258 533.755 176.258C525.552 176.258 521.309 176.281 521.028 176.328C520.794 176.328 520.63 176.375 520.536 176.469C520.442 176.562 520.325 176.703 520.184 176.891C520.044 177.031 519.95 177.242 519.903 177.523C519.903 177.758 519.88 178.062 519.833 178.438C519.786 178.766 520.044 192.172 520.606 218.656C521.216 245.094 521.989 258.312 522.927 258.312L611.028 257.469C612.013 257.469 612.622 257.188 612.856 256.625C613.091 256.062 613.325 254.469 613.559 251.844C613.794 249.219 614.098 240.641 614.473 226.109C614.473 224.375 616.255 223.508 619.817 223.508C623.38 223.508 625.161 224.469 625.161 226.391L624.317 266.68C624.317 269.398 622.395 270.758 618.552 270.758L510.552 269.844ZM725.792 269.844L703.925 270.758C702.003 270.758 700.855 270.406 700.48 269.703C700.105 269.047 699.917 267.547 699.917 265.203C699.917 262.859 700.175 261.477 700.691 261.055C701.253 260.586 702.706 260.352 705.05 260.352H713.698C715.433 260.352 728.159 231.406 751.878 173.516C753.894 168.688 754.995 166.062 755.183 165.641L785.698 94.7656C786.448 92.7969 788.089 90.2656 790.62 87.1719C793.198 84.0313 795.214 80.8672 796.667 77.6797C798.87 72.8516 800.792 70.3906 802.433 70.2969C804.402 70.2969 805.55 71.1641 805.878 72.8984L840.402 169.93C862.152 230.211 873.683 260.352 874.995 260.352H885.05C886.409 260.352 887.277 260.68 887.652 261.336C888.027 261.945 888.214 263.281 888.214 265.344C888.214 267.406 888.027 268.812 887.652 269.562C887.277 270.359 886.409 270.758 885.05 270.758L858.261 269.844L825.144 270.758C823.456 270.758 822.402 270.383 821.98 269.633C821.605 268.93 821.417 267.43 821.417 265.133C821.417 262.836 821.652 261.477 822.12 261.055C822.636 260.586 824.042 260.352 826.339 260.352H842.159C842.347 260.352 842.441 259.672 842.441 258.312C842.441 256.953 840.027 248.82 835.198 233.914C830.417 219.008 826.878 208.297 824.581 201.781C822.331 195.266 821.019 191.797 820.644 191.375C820.269 190.906 819.378 190.672 817.972 190.672H759.823C757.808 190.672 756.472 190.93 755.816 191.445C755.206 191.961 754.527 193.227 753.777 195.242C738.402 234.102 730.62 255.711 730.433 260.07L730.714 260.352H752.862C754.456 260.352 755.417 260.656 755.745 261.266C756.12 261.828 756.308 262.859 756.308 264.359C756.308 265.859 756.284 266.844 756.237 267.312C756.237 267.734 756.191 268.25 756.097 268.859C756.003 269.422 755.816 269.797 755.534 269.984C754.972 270.5 754.081 270.758 752.862 270.758L725.792 269.844ZM814.808 182.023C816.542 182.023 817.409 181.742 817.409 181.18C817.409 180.57 817.105 179.516 816.495 178.016L792.659 107.984C792.003 105.688 791.464 104.539 791.042 104.539C790.62 104.539 789.987 105.688 789.144 107.984L760.948 177.102C759.964 179.492 759.472 180.922 759.472 181.391C759.472 181.812 760.737 182.023 763.269 182.023H814.808ZM999.463 269.844L965.783 270.758C963.861 270.758 962.666 270.383 962.197 269.633C961.728 268.93 961.494 267.453 961.494 265.203C961.494 262.953 961.869 261.594 962.619 261.125C963.416 260.609 965.056 260.352 967.541 260.352H982.798C984.111 260.352 984.767 244.32 984.767 212.258V128.727C984.767 101.07 984.205 87.2422 983.08 87.2422H969.791C966.744 87.2422 965.009 86.6797 964.588 85.5547C964.213 84.4297 964.025 83.0234 964.025 81.3359C964.025 79.6016 964.447 78.4297 965.291 77.8203C966.134 77.2109 967.634 76.9062 969.791 76.9062L1000.03 77.75L1031.17 76.9062C1033.1 76.9062 1034.29 77.2813 1034.76 78.0312C1035.23 78.7344 1035.46 80.2344 1035.46 82.5312C1035.46 84.7812 1035.13 86.1406 1034.48 86.6094C1033.87 87.0312 1032.37 87.2422 1029.98 87.2422H1014.16C1013.22 87.2422 1012.4 92.4688 1011.7 102.922C1011.04 113.375 1010.71 123.031 1010.71 131.891V167.891C1010.71 170.047 1010.85 171.406 1011.13 171.969C1011.42 172.531 1012.24 172.812 1013.6 172.812H1019.92C1023.06 172.812 1038.51 154.297 1066.26 117.266C1077.93 101.656 1084.33 93.125 1085.45 91.6719C1087.75 88.7188 1087.31 87.2422 1084.12 87.2422H1072.66C1069.61 87.2422 1067.88 86.6797 1067.45 85.5547C1067.08 84.4297 1066.89 83.0234 1066.89 81.3359C1066.89 79.6016 1067.31 78.4297 1068.16 77.8203C1069 77.2109 1070.5 76.9062 1072.66 76.9062L1097.97 77.75L1121.88 76.9062C1123.8 76.9062 1124.95 77.2578 1125.32 77.9609C1125.7 78.6641 1125.88 80.1641 1125.88 82.4609C1125.88 84.7578 1125.6 86.1406 1125.04 86.6094C1124.53 87.0312 1123.1 87.2422 1120.75 87.2422H1106.9C1106.1 87.2422 1095.72 99.2422 1075.75 123.242C1055.83 147.195 1045.28 159.828 1044.11 161.141C1042.99 162.453 1042.42 163.227 1042.42 163.461C1042.42 163.648 1042.75 164.094 1043.41 164.797C1044.06 165.453 1044.58 166.016 1044.95 166.484L1122.44 255.781C1125.2 258.828 1127.99 260.352 1130.81 260.352H1135.45C1137.04 260.352 1138 260.656 1138.33 261.266C1138.7 261.828 1138.89 262.859 1138.89 264.359C1138.89 265.859 1138.87 266.844 1138.82 267.312C1138.82 267.734 1138.78 268.25 1138.68 268.859C1138.59 269.422 1138.4 269.797 1138.12 269.984C1137.56 270.5 1136.67 270.758 1135.45 270.758L1106.06 269.844L1076.38 270.758C1074.46 270.758 1073.31 270.406 1072.94 269.703C1072.56 269.047 1072.38 267.594 1072.38 265.344C1072.38 263.047 1072.73 261.641 1073.43 261.125C1074.13 260.609 1075.49 260.352 1077.51 260.352H1087C1089.35 260.352 1090.24 259.859 1089.67 258.875C1089.25 258.219 1088.67 257.469 1087.92 256.625L1025.41 182.586C1024.66 181.648 1024.03 181.086 1023.51 180.898C1022.99 180.711 1021.7 180.617 1019.64 180.617H1014.16C1012.42 180.617 1011.42 180.758 1011.13 181.039C1010.85 181.273 1010.71 182.188 1010.71 183.781C1010.71 234.828 1011.58 260.352 1013.31 260.352H1034.06C1035.7 260.352 1036.78 260.68 1037.29 261.336C1037.81 261.992 1038.06 263.352 1038.06 265.414C1038.06 267.43 1037.85 268.812 1037.43 269.562C1037.01 270.359 1035.98 270.758 1034.34 270.758L999.463 269.844Z" fill="black"/>
</g>
<g id="figure">
<path d="M1195 12.5046C1190.82 4.63051 1179.11 -7.06815 1165.73 9.13L1161.55 22.6285L1149 29.3777V36.1269L1161.55 53L1178.27 49.6254V36.1269V29.3777H1190.82L1195 22.6285V12.5046Z" fill="#1B2BB8"/>
<path d="M1178.27 29.3777H1190.82L1195 22.6285V12.5046C1190.82 4.63051 1179.11 -7.06815 1165.73 9.13L1161.55 22.6285M1178.27 29.3777V36.1269V49.6254L1161.55 53L1149 36.1269V29.3777L1161.55 22.6285M1178.27 29.3777L1195 39.5015M1161.55 22.6285L1149 9.13" stroke="black"/>
</g>
<defs>
<filter id="filter0_i" x="0.6875" y="69.3828" width="1138.2" height="205.375" filterUnits="userSpaceOnUse" color-interpolation-filters="sRGB">
<feFlood flood-opacity="0" result="BackgroundImageFix"/>
<feBlend mode="normal" in="SourceGraphic" in2="BackgroundImageFix" result="shape"/>
<feColorMatrix in="SourceAlpha" type="matrix" values="0 0 0 0 0 0 0 0 0 0 0 0 0 0 0 0 0 0 127 0" result="hardAlpha"/>
<feOffset dy="4"/>
<feGaussianBlur stdDeviation="2"/>
<feComposite in2="hardAlpha" operator="arithmetic" k2="-1" k3="1"/>
<feColorMatrix type="matrix" values="0 0 0 0 0 0 0 0 0 0 0 0 0 0 0 0 0 0 0.25 0"/>
<feBlend mode="normal" in2="shape" result="effect1_innerShadow"/>
</filter>
</defs>
</svg>
