<svg width="396" height="71" viewBox="0 0 396 71" fill="none" xmlns="http://www.w3.org/2000/svg">
<g filter="url(#filter0_i)">
<path d="M14.0898 70.293L3.39648 70.6104C2.71289 70.6104 2.27344 70.4801 2.07812 70.2197C1.89909 69.9593 1.80957 69.4466 1.80957 68.6816C1.80957 67.9004 1.93978 67.4284 2.2002 67.2656C2.47689 67.0866 3.04655 66.9971 3.90918 66.9971H9.10938C9.30469 66.9971 9.40234 65.695 9.40234 63.0908V30.791C9.40234 25.0618 9.31283 19.6501 9.13379 14.5557C8.97103 9.44499 8.79199 6.88965 8.59668 6.88965L2.49316 7.10938C1.84212 7.10938 1.37826 6.97917 1.10156 6.71875C0.841146 6.45833 0.710938 5.92936 0.710938 5.13184C0.710938 4.31803 0.82487 3.81348 1.05273 3.61816C1.29688 3.40658 1.77702 3.30078 2.49316 3.30078L14.3096 3.49609L26.5898 3.20312C35.6393 3.20312 42.0846 5.41667 45.9258 9.84375C48.0417 12.2689 49.0996 15.5241 49.0996 19.6094C49.0996 26.4453 44.1354 31.7106 34.207 35.4053C33.6699 35.6169 33.4014 35.7471 33.4014 35.7959C33.4014 35.8447 33.7513 35.9261 34.4512 36.04C35.151 36.1377 35.8916 36.2679 36.6729 36.4307C37.4541 36.5771 38.4876 36.8538 39.7734 37.2607C41.0592 37.6514 42.2148 38.1071 43.2402 38.6279C44.2656 39.1325 45.348 39.8324 46.4873 40.7275C47.6266 41.6227 48.5788 42.6237 49.3438 43.7305C51.1178 46.2695 52.0049 49.3945 52.0049 53.1055C52.0049 64.694 42.5729 70.4883 23.709 70.4883L14.0898 70.293ZM18.9971 37.7002C18.46 37.7002 18.1914 37.9688 18.1914 38.5059C18.1914 57.5 18.4274 66.9971 18.8994 66.9971H24.9053C36.7054 66.9971 42.6055 62.1305 42.6055 52.3975C42.6055 48.7842 41.9382 45.8545 40.6035 43.6084C39.2852 41.3623 37.3727 39.8161 34.8662 38.9697C32.3597 38.1234 28.2012 37.7002 22.3906 37.7002H18.9971ZM25.1982 34.8926L28.4941 34.9902C30.8542 34.9902 33.2712 33.8916 35.7451 31.6943C38.6423 29.1227 40.0908 25.6234 40.0908 21.1963C40.0908 18.0387 39.3421 15.2962 37.8447 12.9688C34.8174 8.2487 29.7718 5.88867 22.708 5.88867C20.527 5.88867 19.1598 6.02702 18.6064 6.30371C18.3298 6.48275 18.1914 14.1813 18.1914 29.3994V34.209C18.1914 34.5182 18.2484 34.7135 18.3623 34.7949C18.4925 34.86 18.875 34.8926 19.5098 34.8926H25.1982ZM88.582 41.0938C88.582 18.291 88.2484 6.88965 87.5811 6.88965L81.7705 7.10938C81.0706 7.10938 80.5824 6.96289 80.3057 6.66992C80.029 6.37695 79.8906 5.84798 79.8906 5.08301C79.8906 4.31803 80.0371 3.82975 80.3301 3.61816C80.623 3.40658 81.1357 3.30078 81.8682 3.30078L93.4893 3.49609L107.991 2.91016C120.003 2.91016 127.132 6.84896 129.378 14.7266C129.85 16.3867 130.086 18.0387 130.086 19.6826C130.086 21.3102 129.899 22.7425 129.524 23.9795C129.166 25.2002 128.702 26.2988 128.133 27.2754C127.563 28.2357 126.863 29.1715 126.033 30.083C125.219 30.9782 124.414 31.7594 123.616 32.4268C122.819 33.0778 121.948 33.7044 121.004 34.3066C119.572 35.2344 118.351 35.9342 117.342 36.4062C116.333 36.8783 115.82 37.1387 115.804 37.1875C115.787 37.2363 116.162 37.391 116.927 37.6514C117.708 37.8955 118.546 38.2048 119.441 38.5791C120.353 38.9535 121.386 39.4743 122.542 40.1416C123.714 40.8089 124.764 41.5413 125.691 42.3389C126.619 43.1201 127.555 44.1211 128.499 45.3418C129.459 46.5462 130.265 47.8646 130.916 49.2969C132.397 52.5358 133.219 56.3688 133.382 60.7959C133.512 64.5557 133.675 66.5332 133.87 66.7285C134.082 66.9076 134.285 66.9971 134.48 66.9971H139.07C139.64 66.9971 140.031 67.168 140.242 67.5098C140.47 67.8353 140.584 68.5026 140.584 69.5117C140.584 70.2441 140.047 70.6104 138.973 70.6104L125.276 70.293C124.544 70.293 124.178 69.9268 124.178 69.1943V63.4082C124.178 56.6536 123.624 51.8034 122.518 48.8574C121.329 45.651 119.669 43.3398 117.537 41.9238C114.868 40.1335 111.417 39.1895 107.186 39.0918L97.9814 38.9941C97.4443 38.9941 97.1758 39.2627 97.1758 39.7998C97.1758 43.3805 97.2979 48.8086 97.542 56.084C97.8024 63.3594 98.0465 66.9971 98.2744 66.9971H104.085C104.655 66.9971 105.029 67.111 105.208 67.3389C105.387 67.5667 105.477 68.0306 105.477 68.7305C105.477 69.4303 105.387 69.9186 105.208 70.1953C105.029 70.472 104.655 70.6104 104.085 70.6104L93.2695 70.293L83.4795 70.6104C82.7796 70.6104 82.3158 70.472 82.0879 70.1953C81.8763 69.9349 81.7705 69.4222 81.7705 68.6572C81.7705 67.8923 81.9007 67.4284 82.1611 67.2656C82.4378 67.0866 83.0075 66.9971 83.8701 66.9971H88.1914C88.4518 66.9971 88.582 62.7979 88.582 54.3994V41.0938ZM97.6885 6.30371C97.3467 6.30371 97.1758 8.00456 97.1758 11.4062V35.6982C97.1758 36.04 97.6071 36.2109 98.4697 36.2109L111.287 36.4062C111.824 36.4062 112.19 36.3737 112.386 36.3086C118.115 33.6393 120.979 28.7402 120.979 21.6113C120.979 16.0612 118.392 11.7806 113.216 8.76953C110.14 6.99544 107.031 6.1084 103.89 6.1084C100.748 6.1084 98.6813 6.1735 97.6885 6.30371ZM177.747 70.293L165.54 70.6104C164.856 70.6104 164.417 70.4801 164.222 70.2197C164.043 69.9593 163.953 69.4548 163.953 68.7061C163.953 67.9411 164.075 67.4691 164.319 67.29C164.58 67.0947 165.117 66.9971 165.931 66.9971H172.034C172.311 66.9971 172.449 64.5964 172.449 59.7949V50.2002L172.034 20.8057C172.034 16.2321 171.912 12.7409 171.668 10.332C171.44 7.9069 171.261 6.69434 171.131 6.69434H166.443C165.776 6.69434 165.32 6.59668 165.076 6.40137C164.848 6.20605 164.734 5.62826 164.734 4.66797C164.734 3.69141 165.174 3.20312 166.053 3.20312L170.447 3.34961C173.377 3.44727 175.542 3.49609 176.941 3.49609L202.137 3.20312C205.522 3.20312 207.378 3.1543 207.703 3.05664C208.045 2.95898 208.216 2.73926 208.216 2.39746C208.232 2.31608 208.257 2.17773 208.289 1.98242C208.322 1.77083 208.354 1.60807 208.387 1.49414C208.419 1.36393 208.484 1.21745 208.582 1.05469C208.745 0.810547 209.184 0.688477 209.9 0.688477C210.633 0.688477 211.137 0.777995 211.414 0.957031C211.707 1.11979 211.854 1.50228 211.854 2.10449L211.438 15.2881C211.438 15.7601 211.308 16.0693 211.048 16.2158C210.787 16.346 210.283 16.4111 209.534 16.4111C208.346 16.4111 207.752 15.9066 207.752 14.8975L208.045 7.20703C208.045 7.02799 204.863 6.86523 198.499 6.71875C192.135 6.57227 186.414 6.49902 181.336 6.49902C180.945 6.49902 180.75 9.28223 180.75 14.8486C180.75 20.415 180.783 25.0212 180.848 28.667C180.913 32.3128 180.986 34.2008 181.067 34.3311C181.165 34.445 181.425 34.502 181.849 34.502H198.548C202.015 34.502 203.748 34.0706 203.748 33.208V28.0078C203.748 27.3405 204.358 27.0068 205.579 27.0068C206.816 27.0068 207.435 27.3079 207.435 27.9102L207.239 35.8936L207.435 44.3896C207.435 44.9919 206.816 45.293 205.579 45.293C204.358 45.293 203.748 44.9593 203.748 44.292V39.3115C203.748 38.3024 202.015 37.7979 198.548 37.7979C192.9 37.7979 188.652 37.7979 185.804 37.7979C182.955 37.7979 181.482 37.806 181.385 37.8223C181.303 37.8223 181.246 37.8385 181.214 37.8711C181.181 37.9036 181.141 37.9525 181.092 38.0176C181.043 38.0664 181.01 38.1396 180.994 38.2373C180.994 38.3187 180.986 38.4245 180.97 38.5547C180.953 38.6686 181.043 43.3236 181.238 52.5195C181.45 61.6992 181.718 66.2891 182.044 66.2891L212.635 65.9961C212.977 65.9961 213.188 65.8984 213.27 65.7031C213.351 65.5078 213.432 64.9544 213.514 64.043C213.595 63.1315 213.701 60.153 213.831 55.1074C213.831 54.5052 214.45 54.2041 215.687 54.2041C216.924 54.2041 217.542 54.5378 217.542 55.2051L217.249 69.1943C217.249 70.1383 216.582 70.6104 215.247 70.6104L177.747 70.293ZM252.483 70.293L244.891 70.6104C244.223 70.6104 243.825 70.4883 243.694 70.2441C243.564 70.0163 243.499 69.4954 243.499 68.6816C243.499 67.8678 243.589 67.3877 243.768 67.2412C243.963 67.0785 244.467 66.9971 245.281 66.9971H248.284C248.886 66.9971 253.305 56.9466 261.541 36.8457C262.241 35.1693 262.623 34.2578 262.688 34.1113L273.284 9.50195C273.545 8.81836 274.114 7.93945 274.993 6.86523C275.888 5.77474 276.588 4.67611 277.093 3.56934C277.858 1.8929 278.525 1.03841 279.095 1.00586C279.778 1.00586 280.177 1.30697 280.291 1.90918L292.278 35.6006C299.83 56.5316 303.834 66.9971 304.29 66.9971H307.781C308.253 66.9971 308.554 67.111 308.685 67.3389C308.815 67.5505 308.88 68.0143 308.88 68.7305C308.88 69.4466 308.815 69.9349 308.685 70.1953C308.554 70.472 308.253 70.6104 307.781 70.6104L298.479 70.293L286.98 70.6104C286.395 70.6104 286.028 70.4801 285.882 70.2197C285.752 69.9756 285.687 69.4548 285.687 68.6572C285.687 67.8597 285.768 67.3877 285.931 67.2412C286.11 67.0785 286.598 66.9971 287.396 66.9971H292.889C292.954 66.9971 292.986 66.7611 292.986 66.2891C292.986 65.8171 292.148 62.9932 290.472 57.8174C288.812 52.6416 287.583 48.9225 286.785 46.6602C286.004 44.3978 285.548 43.1934 285.418 43.0469C285.288 42.8841 284.979 42.8027 284.49 42.8027H264.3C263.6 42.8027 263.136 42.8923 262.908 43.0713C262.697 43.2503 262.461 43.6898 262.2 44.3896C256.862 57.8825 254.16 65.3857 254.095 66.8994L254.192 66.9971H261.883C262.436 66.9971 262.77 67.1029 262.884 67.3145C263.014 67.5098 263.079 67.8678 263.079 68.3887C263.079 68.9095 263.071 69.2513 263.055 69.4141C263.055 69.5605 263.038 69.7396 263.006 69.9512C262.973 70.1465 262.908 70.2767 262.811 70.3418C262.615 70.5208 262.306 70.6104 261.883 70.6104L252.483 70.293ZM283.392 39.7998C283.994 39.7998 284.295 39.7021 284.295 39.5068C284.295 39.2952 284.189 38.929 283.978 38.4082L275.701 14.0918C275.473 13.2943 275.286 12.8955 275.14 12.8955C274.993 12.8955 274.773 13.2943 274.48 14.0918L264.69 38.0908C264.349 38.9209 264.178 39.4173 264.178 39.5801C264.178 39.7266 264.617 39.7998 265.496 39.7998H283.392ZM347.508 70.293L335.813 70.6104C335.146 70.6104 334.731 70.4801 334.568 70.2197C334.406 69.9756 334.324 69.4629 334.324 68.6816C334.324 67.9004 334.454 67.4284 334.715 67.2656C334.992 67.0866 335.561 66.9971 336.424 66.9971H341.722C342.177 66.9971 342.405 61.4307 342.405 50.2979V21.2939C342.405 11.6911 342.21 6.88965 341.819 6.88965H337.205C336.147 6.88965 335.545 6.69434 335.398 6.30371C335.268 5.91309 335.203 5.4248 335.203 4.83887C335.203 4.23665 335.35 3.82975 335.643 3.61816C335.936 3.40658 336.456 3.30078 337.205 3.30078L347.703 3.59375L358.519 3.30078C359.186 3.30078 359.601 3.43099 359.764 3.69141C359.926 3.93555 360.008 4.45638 360.008 5.25391C360.008 6.03516 359.894 6.50716 359.666 6.66992C359.454 6.81641 358.934 6.88965 358.104 6.88965H352.61C352.285 6.88965 352 8.70443 351.756 12.334C351.528 15.9635 351.414 19.3164 351.414 22.3926V34.8926C351.414 35.6413 351.463 36.1133 351.561 36.3086C351.658 36.5039 351.943 36.6016 352.415 36.6016H354.612C355.703 36.6016 361.066 30.1725 370.701 17.3145C374.754 11.8945 376.976 8.93229 377.366 8.42773C378.164 7.40234 378.009 6.88965 376.902 6.88965H372.923C371.865 6.88965 371.263 6.69434 371.116 6.30371C370.986 5.91309 370.921 5.4248 370.921 4.83887C370.921 4.23665 371.067 3.82975 371.36 3.61816C371.653 3.40658 372.174 3.30078 372.923 3.30078L381.712 3.59375L390.013 3.30078C390.68 3.30078 391.079 3.42285 391.209 3.66699C391.339 3.91113 391.404 4.43197 391.404 5.22949C391.404 6.02702 391.307 6.50716 391.111 6.66992C390.932 6.81641 390.436 6.88965 389.622 6.88965H384.812C384.536 6.88965 380.931 11.0563 373.997 19.3896C367.08 27.7067 363.418 32.0931 363.011 32.5488C362.62 33.0046 362.425 33.2731 362.425 33.3545C362.425 33.4196 362.539 33.5742 362.767 33.8184C362.994 34.0462 363.174 34.2415 363.304 34.4043L390.208 65.4102C391.168 66.4681 392.137 66.9971 393.113 66.9971H394.725C395.278 66.9971 395.612 67.1029 395.726 67.3145C395.856 67.5098 395.921 67.8678 395.921 68.3887C395.921 68.9095 395.913 69.2513 395.896 69.4141C395.896 69.5605 395.88 69.7396 395.848 69.9512C395.815 70.1465 395.75 70.2767 395.652 70.3418C395.457 70.5208 395.148 70.6104 394.725 70.6104L384.52 70.293L374.217 70.6104C373.549 70.6104 373.151 70.4883 373.021 70.2441C372.89 70.0163 372.825 69.5117 372.825 68.7305C372.825 67.9329 372.947 67.4447 373.191 67.2656C373.436 67.0866 373.908 66.9971 374.607 66.9971H377.903C378.717 66.9971 379.026 66.8262 378.831 66.4844C378.685 66.2565 378.481 65.9961 378.221 65.7031L356.517 39.9951C356.256 39.6696 356.036 39.4743 355.857 39.4092C355.678 39.3441 355.231 39.3115 354.515 39.3115H352.61C352.008 39.3115 351.658 39.3604 351.561 39.458C351.463 39.5394 351.414 39.8568 351.414 40.4102C351.414 58.1348 351.715 66.9971 352.317 66.9971H359.52C360.089 66.9971 360.464 67.111 360.643 67.3389C360.822 67.5667 360.911 68.0387 360.911 68.7549C360.911 69.4548 360.838 69.9349 360.691 70.1953C360.545 70.472 360.187 70.6104 359.617 70.6104L347.508 70.293Z" fill="black"/>
</g>
<defs>
<filter id="filter0_i" x="0.710938" y="0.688477" width="395.21" height="73.9219" filterUnits="userSpaceOnUse" color-interpolation-filters="sRGB">
<feFlood flood-opacity="0" result="BackgroundImageFix"/>
<feBlend mode="normal" in="SourceGraphic" in2="BackgroundImageFix" result="shape"/>
<feColorMatrix in="SourceAlpha" type="matrix" values="0 0 0 0 0 0 0 0 0 0 0 0 0 0 0 0 0 0 127 0" result="hardAlpha"/>
<feOffset dy="4"/>
<feGaussianBlur stdDeviation="2"/>
<feComposite in2="hardAlpha" operator="arithmetic" k2="-1" k3="1"/>
<feColorMatrix type="matrix" values="0 0 0 0 0 0 0 0 0 0 0 0 0 0 0 0 0 0 0.25 0"/>
<feBlend mode="normal" in2="shape" result="effect1_innerShadow"/>
</filter>
</defs>
</svg>
