<svg width="858" height="187" viewBox="0 0 858 187" fill="none" xmlns="http://www.w3.org/2000/svg">
<g id="BREAK" filter="url(#filter0_i)">
<path d="M27.1797 185.586L5.79297 186.221C4.42578 186.221 3.54688 185.96 3.15625 185.439C2.79818 184.919 2.61914 183.893 2.61914 182.363C2.61914 180.801 2.87956 179.857 3.40039 179.531C3.95378 179.173 5.0931 178.994 6.81836 178.994H17.2188C17.6094 178.994 17.8047 176.39 17.8047 171.182V106.582C17.8047 95.1237 17.6257 84.3001 17.2676 74.1113C16.9421 63.89 16.584 58.7793 16.1934 58.7793L3.98633 59.2188C2.68424 59.2188 1.75651 58.9583 1.20312 58.4375C0.682292 57.9167 0.421875 56.8587 0.421875 55.2637C0.421875 53.6361 0.64974 52.627 1.10547 52.2363C1.59375 51.8132 2.55404 51.6016 3.98633 51.6016L27.6191 51.9922L52.1797 51.4062C70.2786 51.4062 83.1693 55.8333 90.8516 64.6875C95.0833 69.5378 97.1992 76.0482 97.1992 84.2188C97.1992 97.8906 87.2708 108.421 67.4141 115.811C66.3398 116.234 65.8027 116.494 65.8027 116.592C65.8027 116.689 66.5026 116.852 67.9023 117.08C69.3021 117.275 70.7832 117.536 72.3457 117.861C73.9082 118.154 75.9753 118.708 78.5469 119.521C81.1185 120.303 83.4297 121.214 85.4805 122.256C87.5312 123.265 89.696 124.665 91.9746 126.455C94.2533 128.245 96.1576 130.247 97.6875 132.461C101.236 137.539 103.01 143.789 103.01 151.211C103.01 174.388 84.1458 185.977 46.418 185.977L27.1797 185.586ZM36.9941 120.4C35.9199 120.4 35.3828 120.938 35.3828 122.012C35.3828 160 35.8548 178.994 36.7988 178.994H48.8105C72.4108 178.994 84.2109 169.261 84.2109 149.795C84.2109 142.568 82.8763 136.709 80.207 132.217C77.5703 127.725 73.7454 124.632 68.7324 122.939C63.7194 121.247 55.4023 120.4 43.7812 120.4H36.9941ZM49.3965 114.785L55.9883 114.98C60.7083 114.98 65.5423 112.783 70.4902 108.389C76.2845 103.245 79.1816 96.2467 79.1816 87.3926C79.1816 81.0775 77.6842 75.5924 74.6895 70.9375C68.6348 61.4974 58.5436 56.7773 44.416 56.7773C40.054 56.7773 37.3197 57.054 36.2129 57.6074C35.6595 57.9655 35.3828 73.3626 35.3828 103.799V113.418C35.3828 114.036 35.4967 114.427 35.7246 114.59C35.985 114.72 36.75 114.785 38.0195 114.785H49.3965ZM176.164 127.188C176.164 81.582 175.497 58.7793 174.162 58.7793L162.541 59.2188C161.141 59.2188 160.165 58.9258 159.611 58.3398C159.058 57.7539 158.781 56.696 158.781 55.166C158.781 53.6361 159.074 52.6595 159.66 52.2363C160.246 51.8132 161.271 51.6016 162.736 51.6016L185.979 51.9922L214.982 50.8203C239.006 50.8203 253.264 58.6979 257.756 74.4531C258.7 77.7734 259.172 81.0775 259.172 84.3652C259.172 87.6204 258.798 90.485 258.049 92.959C257.333 95.4004 256.405 97.5977 255.266 99.5508C254.126 101.471 252.727 103.343 251.066 105.166C249.439 106.956 247.827 108.519 246.232 109.854C244.637 111.156 242.896 112.409 241.008 113.613C238.143 115.469 235.702 116.868 233.684 117.812C231.665 118.757 230.64 119.277 230.607 119.375C230.575 119.473 231.324 119.782 232.854 120.303C234.416 120.791 236.092 121.41 237.883 122.158C239.706 122.907 241.773 123.949 244.084 125.283C246.428 126.618 248.527 128.083 250.383 129.678C252.238 131.24 254.11 133.242 255.998 135.684C257.919 138.092 259.53 140.729 260.832 143.594C263.794 150.072 265.438 157.738 265.764 166.592C266.024 174.111 266.35 178.066 266.74 178.457C267.163 178.815 267.57 178.994 267.961 178.994H277.141C278.28 178.994 279.061 179.336 279.484 180.02C279.94 180.671 280.168 182.005 280.168 184.023C280.168 185.488 279.094 186.221 276.945 186.221L249.553 185.586C248.088 185.586 247.355 184.854 247.355 183.389V171.816C247.355 158.307 246.249 148.607 244.035 142.715C241.659 136.302 238.339 131.68 234.074 128.848C228.736 125.267 221.835 123.379 213.371 123.184L194.963 122.988C193.889 122.988 193.352 123.525 193.352 124.6C193.352 131.761 193.596 142.617 194.084 157.168C194.605 171.719 195.093 178.994 195.549 178.994H207.17C208.309 178.994 209.058 179.222 209.416 179.678C209.774 180.133 209.953 181.061 209.953 182.461C209.953 183.861 209.774 184.837 209.416 185.391C209.058 185.944 208.309 186.221 207.17 186.221L185.539 185.586L165.959 186.221C164.559 186.221 163.632 185.944 163.176 185.391C162.753 184.87 162.541 183.844 162.541 182.314C162.541 180.785 162.801 179.857 163.322 179.531C163.876 179.173 165.015 178.994 166.74 178.994H175.383C175.904 178.994 176.164 170.596 176.164 153.799V127.188ZM194.377 57.6074C193.693 57.6074 193.352 61.0091 193.352 67.8125V116.396C193.352 117.08 194.214 117.422 195.939 117.422L221.574 117.812C222.648 117.812 223.381 117.747 223.771 117.617C235.23 112.279 240.959 102.48 240.959 88.2227C240.959 77.1224 235.783 68.5612 225.432 62.5391C219.279 58.9909 213.062 57.2168 206.779 57.2168C200.497 57.2168 196.363 57.347 194.377 57.6074ZM354.494 185.586L330.08 186.221C328.713 186.221 327.834 185.96 327.443 185.439C327.085 184.919 326.906 183.91 326.906 182.412C326.906 180.882 327.15 179.938 327.639 179.58C328.16 179.189 329.234 178.994 330.861 178.994H343.068C343.622 178.994 343.898 174.193 343.898 164.59V145.4L343.068 86.6113C343.068 77.4642 342.824 70.4818 342.336 65.6641C341.88 60.8138 341.522 58.3887 341.262 58.3887H331.887C330.552 58.3887 329.641 58.1934 329.152 57.8027C328.697 57.4121 328.469 56.2565 328.469 54.3359C328.469 52.3828 329.348 51.4062 331.105 51.4062L339.895 51.6992C345.754 51.8945 350.083 51.9922 352.883 51.9922L403.273 51.4062C410.044 51.4062 413.755 51.3086 414.406 51.1133C415.09 50.918 415.432 50.4785 415.432 49.7949C415.464 49.6322 415.513 49.3555 415.578 48.9648C415.643 48.5417 415.708 48.2161 415.773 47.9883C415.839 47.7279 415.969 47.4349 416.164 47.1094C416.49 46.6211 417.368 46.377 418.801 46.377C420.266 46.377 421.275 46.556 421.828 46.9141C422.414 47.2396 422.707 48.0046 422.707 49.209L421.877 75.5762C421.877 76.5202 421.617 77.1387 421.096 77.4316C420.575 77.6921 419.566 77.8223 418.068 77.8223C415.692 77.8223 414.504 76.8132 414.504 74.7949L415.09 59.4141C415.09 59.056 408.726 58.7305 395.998 58.4375C383.27 58.1445 371.828 57.998 361.672 57.998C360.891 57.998 360.5 63.5645 360.5 74.6973C360.5 85.8301 360.565 95.0423 360.695 102.334C360.826 109.626 360.972 113.402 361.135 113.662C361.33 113.89 361.851 114.004 362.697 114.004H396.096C403.029 114.004 406.496 113.141 406.496 111.416V101.016C406.496 99.681 407.717 99.0137 410.158 99.0137C412.632 99.0137 413.869 99.6159 413.869 100.82L413.479 116.787L413.869 133.779C413.869 134.984 412.632 135.586 410.158 135.586C407.717 135.586 406.496 134.919 406.496 133.584V123.623C406.496 121.605 403.029 120.596 396.096 120.596C384.8 120.596 376.304 120.596 370.607 120.596C364.911 120.596 361.965 120.612 361.77 120.645C361.607 120.645 361.493 120.677 361.428 120.742C361.363 120.807 361.281 120.905 361.184 121.035C361.086 121.133 361.021 121.279 360.988 121.475C360.988 121.637 360.972 121.849 360.939 122.109C360.907 122.337 361.086 131.647 361.477 150.039C361.9 168.398 362.437 177.578 363.088 177.578L424.27 176.992C424.953 176.992 425.376 176.797 425.539 176.406C425.702 176.016 425.865 174.909 426.027 173.086C426.19 171.263 426.402 165.306 426.662 155.215C426.662 154.01 427.899 153.408 430.373 153.408C432.847 153.408 434.084 154.076 434.084 155.41L433.498 183.389C433.498 185.277 432.163 186.221 429.494 186.221L354.494 185.586ZM503.967 185.586L488.781 186.221C487.447 186.221 486.649 185.977 486.389 185.488C486.128 185.033 485.998 183.991 485.998 182.363C485.998 180.736 486.177 179.775 486.535 179.482C486.926 179.157 487.935 178.994 489.562 178.994H495.568C496.773 178.994 505.611 158.893 522.082 118.691C523.482 115.339 524.247 113.516 524.377 113.223L545.568 64.0039C546.089 62.6367 547.229 60.8789 548.986 58.7305C550.777 56.5495 552.176 54.3522 553.186 52.1387C554.715 48.7858 556.05 47.0768 557.189 47.0117C558.557 47.0117 559.354 47.6139 559.582 48.8184L583.557 116.201C598.661 158.063 606.669 178.994 607.58 178.994H614.562C615.507 178.994 616.109 179.222 616.369 179.678C616.63 180.101 616.76 181.029 616.76 182.461C616.76 183.893 616.63 184.87 616.369 185.391C616.109 185.944 615.507 186.221 614.562 186.221L595.959 185.586L572.961 186.221C571.789 186.221 571.057 185.96 570.764 185.439C570.503 184.951 570.373 183.91 570.373 182.314C570.373 180.719 570.536 179.775 570.861 179.482C571.219 179.157 572.196 178.994 573.791 178.994H584.777C584.908 178.994 584.973 178.522 584.973 177.578C584.973 176.634 583.296 170.986 579.943 160.635C576.623 150.283 574.165 142.845 572.57 138.32C571.008 133.796 570.096 131.387 569.836 131.094C569.576 130.768 568.957 130.605 567.98 130.605H527.6C526.2 130.605 525.272 130.785 524.816 131.143C524.393 131.501 523.921 132.38 523.4 133.779C512.723 160.765 507.32 175.771 507.189 178.799L507.385 178.994H522.766C523.872 178.994 524.54 179.206 524.768 179.629C525.028 180.02 525.158 180.736 525.158 181.777C525.158 182.819 525.142 183.503 525.109 183.828C525.109 184.121 525.077 184.479 525.012 184.902C524.947 185.293 524.816 185.553 524.621 185.684C524.23 186.042 523.612 186.221 522.766 186.221L503.967 185.586ZM565.783 124.6C566.988 124.6 567.59 124.404 567.59 124.014C567.59 123.59 567.378 122.858 566.955 121.816L550.402 73.1836C549.947 71.5885 549.572 70.791 549.279 70.791C548.986 70.791 548.547 71.5885 547.961 73.1836L528.381 121.182C527.697 122.842 527.355 123.835 527.355 124.16C527.355 124.453 528.234 124.6 529.992 124.6H565.783ZM694.016 185.586L670.627 186.221C669.292 186.221 668.462 185.96 668.137 185.439C667.811 184.951 667.648 183.926 667.648 182.363C667.648 180.801 667.909 179.857 668.43 179.531C668.983 179.173 670.122 178.994 671.848 178.994H682.443C683.355 178.994 683.811 167.861 683.811 145.596V87.5879C683.811 68.3822 683.42 58.7793 682.639 58.7793H673.41C671.294 58.7793 670.09 58.3887 669.797 57.6074C669.536 56.8262 669.406 55.8496 669.406 54.6777C669.406 53.4733 669.699 52.6595 670.285 52.2363C670.871 51.8132 671.913 51.6016 673.41 51.6016L694.406 52.1875L716.037 51.6016C717.372 51.6016 718.202 51.862 718.527 52.3828C718.853 52.8711 719.016 53.9128 719.016 55.5078C719.016 57.0703 718.788 58.0143 718.332 58.3398C717.909 58.6328 716.867 58.7793 715.207 58.7793H704.221C703.57 58.7793 703 62.4089 702.512 69.668C702.056 76.9271 701.828 83.6328 701.828 89.7852V114.785C701.828 116.283 701.926 117.227 702.121 117.617C702.316 118.008 702.886 118.203 703.83 118.203H708.225C710.406 118.203 721.132 105.345 740.402 79.6289C748.508 68.7891 752.951 62.8646 753.732 61.8555C755.327 59.8047 755.018 58.7793 752.805 58.7793H744.846C742.73 58.7793 741.525 58.3887 741.232 57.6074C740.972 56.8262 740.842 55.8496 740.842 54.6777C740.842 53.4733 741.135 52.6595 741.721 52.2363C742.307 51.8132 743.348 51.6016 744.846 51.6016L762.424 52.1875L779.025 51.6016C780.36 51.6016 781.158 51.8457 781.418 52.334C781.678 52.8223 781.809 53.8639 781.809 55.459C781.809 57.054 781.613 58.0143 781.223 58.3398C780.865 58.6328 779.872 58.7793 778.244 58.7793H768.625C768.072 58.7793 760.861 67.1126 746.994 83.7793C733.16 100.413 725.835 109.186 725.021 110.098C724.24 111.009 723.85 111.546 723.85 111.709C723.85 111.839 724.077 112.148 724.533 112.637C724.989 113.092 725.347 113.483 725.607 113.809L779.416 175.82C781.337 177.936 783.273 178.994 785.227 178.994H788.449C789.556 178.994 790.223 179.206 790.451 179.629C790.712 180.02 790.842 180.736 790.842 181.777C790.842 182.819 790.826 183.503 790.793 183.828C790.793 184.121 790.76 184.479 790.695 184.902C790.63 185.293 790.5 185.553 790.305 185.684C789.914 186.042 789.296 186.221 788.449 186.221L768.039 185.586L747.434 186.221C746.099 186.221 745.301 185.977 745.041 185.488C744.781 185.033 744.65 184.023 744.65 182.461C744.65 180.866 744.895 179.889 745.383 179.531C745.871 179.173 746.815 178.994 748.215 178.994H754.807C756.434 178.994 757.053 178.652 756.662 177.969C756.369 177.513 755.962 176.992 755.441 176.406L712.033 124.99C711.512 124.339 711.073 123.949 710.715 123.818C710.357 123.688 709.462 123.623 708.029 123.623H704.221C703.016 123.623 702.316 123.721 702.121 123.916C701.926 124.079 701.828 124.714 701.828 125.82C701.828 161.27 702.43 178.994 703.635 178.994H718.039C719.178 178.994 719.927 179.222 720.285 179.678C720.643 180.133 720.822 181.077 720.822 182.51C720.822 183.91 720.676 184.87 720.383 185.391C720.09 185.944 719.374 186.221 718.234 186.221L694.016 185.586Z" fill="black"/>
</g>
<g id="figure">
<path d="M857 12.5046C852.818 4.63051 841.109 -7.06815 827.727 9.13L823.545 22.6285L811 29.3777V36.1269L823.545 53L840.273 49.6254V36.1269V29.3777H852.818L857 22.6285V12.5046Z" fill="#1B2BB8"/>
<path d="M840.273 29.3777H852.818L857 22.6285V12.5046C852.818 4.63051 841.109 -7.06815 827.727 9.13L823.545 22.6285M840.273 29.3777V36.1269V49.6254L823.545 53L811 36.1269V29.3777L823.545 22.6285M840.273 29.3777L857 39.5015M823.545 22.6285L811 9.13" stroke="black"/>
</g>
<defs>
<filter id="filter0_i" x="0.421875" y="46.377" width="790.42" height="143.844" filterUnits="userSpaceOnUse" color-interpolation-filters="sRGB">
<feFlood flood-opacity="0" result="BackgroundImageFix"/>
<feBlend mode="normal" in="SourceGraphic" in2="BackgroundImageFix" result="shape"/>
<feColorMatrix in="SourceAlpha" type="matrix" values="0 0 0 0 0 0 0 0 0 0 0 0 0 0 0 0 0 0 127 0" result="hardAlpha"/>
<feOffset dy="4"/>
<feGaussianBlur stdDeviation="2"/>
<feComposite in2="hardAlpha" operator="arithmetic" k2="-1" k3="1"/>
<feColorMatrix type="matrix" values="0 0 0 0 0 0 0 0 0 0 0 0 0 0 0 0 0 0 0.25 0"/>
<feBlend mode="normal" in2="shape" result="effect1_innerShadow"/>
</filter>
</defs>
</svg>
